<?xml version="1.0" encoding="utf-8"?>
<!-- Generator: Adobe Illustrator 23.0.1, SVG Export Plug-In . SVG Version: 6.00 Build 0)  -->
<svg version="1.1" id="Layer_1" xmlns="http://www.w3.org/2000/svg" xmlns:xlink="http://www.w3.org/1999/xlink" x="0px" y="0px"
	 viewBox="0 0 126 127" style="enable-background:new 0 0 126 127;" xml:space="preserve">
<style type="text/css">
	.st0{fill:#E91C2F;}
	.st1{fill:none;stroke:#FFFFFF;stroke-width:1.8;stroke-linecap:round;stroke-linejoin:round;stroke-miterlimit:10;}
	.st2{fill:none;stroke:#FFFFFF;stroke-width:1.8;stroke-linejoin:round;stroke-miterlimit:10;}
	.st3{fill:none;stroke:#FFFFFF;stroke-linecap:round;stroke-linejoin:round;stroke-miterlimit:10;}
</style>
<g>
	<circle class="st0" cx="63" cy="63.5" r="61"/>
	<g>
		<g>
			<path class="st1" d="M49.3,69.2c0,0-3,2.5-6.9,2.5c-4.7,0-6.5-2.5-6.5-2.5c-9.3,0-16.9,7.6-16.9,16.9V96h47.2v-9.9
				C66.2,76.8,58.6,69.2,49.3,69.2z"/>
			<line class="st1" x1="36.5" y1="62.5" x2="36.5" y2="69.8"/>
			<line class="st1" x1="48.8" y1="62.3" x2="48.8" y2="69.6"/>
			<path class="st1" d="M56,50.8h-27c-0.5,0-0.9-0.4-0.9-0.9v-3.4c0-0.5,0.4-0.9,0.9-0.9h27c0.5,0,0.9,0.4,0.9,0.9v3.4
				C57,50.4,56.6,50.8,56,50.8z"/>
			<path class="st1" d="M45.5,45.5h-6V32.3c0-0.7,0.6-1.3,1.3-1.3h3.5c0.7,0,1.3,0.6,1.3,1.3V45.5z"/>
			<path class="st1" d="M45.5,33c5.5,1,9.7,5.8,9.7,11.6v0.9"/>
			<path class="st1" d="M29.6,45.5v-0.9c0-5.9,4.3-10.8,9.9-11.6"/>
			<path class="st1" d="M55.2,50.8v0.9c0,6.5-5.3,11.8-11.8,11.8h-2.1c-6.5,0-11.8-5.3-11.8-11.8v-0.9"/>
		</g>
		<path class="st1" d="M36.3,69.2c0,7.8,6.4,9.3,6.4,11.5V96"/>
		<path class="st1" d="M49.2,69.2c0,7.8-6.4,9.3-6.4,11.5V96"/>
		<path class="st1" d="M31.5,69.8c0,16.4-5.3,7.2-5.3,20.4V96"/>
		<path class="st1" d="M53.7,69.8c0,16.4,5.3,7.2,5.3,20.4V96"/>
	</g>
	<g>
		<line class="st2" x1="52.9" y1="58.7" x2="52.9" y2="69.6"/>
		<path class="st2" d="M62.3,75.3h46.6c0.6,0,1.2-0.6,1.2-1.2v-33c0-0.7-0.5-1.2-1.2-1.2H54.2"/>
		<line class="st1" x1="66.6" y1="84.7" x2="98.6" y2="84.7"/>
		<polygon class="st1" points="92.3,84.7 70.4,84.7 71.6,75.3 91.1,75.3 		"/>
	</g>
	<g>
		<circle class="st3" cx="75.1" cy="59.9" r="3.1"/>
		<circle class="st3" cx="89.4" cy="51.9" r="2.1"/>
		<path class="st3" d="M83.7,61.3v-2.8l-2-0.5c-0.1-0.5-0.3-1-0.6-1.5l1.1-1.7l-2-2l-1.7,1.1c-0.5-0.3-0.9-0.5-1.5-0.6l-0.5-2h-2.8
			l-0.5,2c-0.5,0.1-1,0.3-1.5,0.6L70,52.8l-2,2l1.1,1.7c-0.3,0.5-0.5,0.9-0.6,1.5l-2,0.5v2.8l2,0.5c0.1,0.5,0.3,1,0.6,1.5L68,65l2,2
			l1.7-1.1c0.5,0.3,0.9,0.5,1.5,0.6l0.5,2h2.8l0.5-2c0.5-0.1,1-0.3,1.5-0.6l1.7,1.1l2-2l-1.1-1.7c0.3-0.5,0.5-0.9,0.6-1.5L83.7,61.3
			z"/>
		<path class="st3" d="M95.5,52.9v-2l-1.4-0.3c-0.1-0.4-0.2-0.7-0.4-1l0.8-1.2L93,46.8l-1.2,0.8c-0.3-0.2-0.7-0.3-1-0.4l-0.3-1.4h-2
			L88,47.2c-0.4,0.1-0.7,0.2-1,0.4l-1.2-0.8l-1.4,1.4l0.8,1.2c-0.2,0.3-0.3,0.7-0.4,1l-1.4,0.3v2l1.4,0.3c0.1,0.4,0.2,0.7,0.4,1
			l-0.8,1.2l1.4,1.4l1.2-0.8c0.3,0.2,0.7,0.3,1,0.4l0.3,1.4h2l0.3-1.4c0.4-0.1,0.7-0.2,1-0.4l1.2,0.8l1.4-1.4l-0.8-1.2
			c0.2-0.3,0.3-0.7,0.4-1L95.5,52.9z"/>
	</g>
</g>
</svg>
