<?xml version="1.0" encoding="utf-8"?>
<!-- Generator: Adobe Illustrator 23.0.1, SVG Export Plug-In . SVG Version: 6.00 Build 0)  -->
<svg version="1.1" id="Layer_1" xmlns="http://www.w3.org/2000/svg" xmlns:xlink="http://www.w3.org/1999/xlink" x="0px" y="0px"
	 viewBox="0 0 361.4 128.8" style="enable-background:new 0 0 361.4 128.8;" xml:space="preserve">
<style type="text/css">
	.st0{fill:#ffffff;}
	.st1{fill:#ffffff;}
</style>
<g>
	<rect x="87.9" y="1.9" class="st0" width="2.5" height="73.2"/>
	<path class="st0" d="M35.4,10.7c-18.1,0-32.9,14.7-32.9,32.9c0,18.4,14.2,32.9,32.2,32.9c15.1,0,27-7.3,31.9-19.5l0.1-0.3l-2-0.8
		L64.6,56c-4.8,11.3-16,18-29.9,18c-16,0-28.9-12.9-29.6-29.4h61.7l0-0.3c0,0,0.1-0.7,0.1-1.7C67,23.8,54,10.7,35.4,10.7z M5.1,42.2
		C5.8,26.1,19.3,13,35.4,13c19,0,29,14.6,29.1,29.2H5.1z"/>
	<path class="st0" d="M173.8,56.9l0.1-0.3l-2-0.8l-0.1,0.3c-4.8,11.3-16,18-29.9,18c-16,0-28.9-12.9-29.6-29.4H174l0-0.3
		c0,0,0.1-0.7,0.1-1.7c0-18.8-13-31.9-31.6-31.9c-18.1,0-32.9,14.7-32.9,32.9c0,18.4,14.2,32.9,32.2,32.9
		C157,76.4,168.9,69.1,173.8,56.9z M112.3,42.2C113,26.1,126.5,13,142.6,13c19,0,29,14.6,29.1,29.2H112.3z"/>
	<rect x="163.8" y="92" class="st1" width="195.8" height="2.3"/>
	<rect x="189.8" y="65.8" class="st1" width="2.5" height="21.7"/>
	<rect x="189.8" y="98.8" class="st1" width="2.5" height="21.7"/>
	<rect x="271.6" y="12.2" class="st1" width="2.5" height="62.7"/>
	<path class="st1" d="M325.7,76.4c16,0,25.8-10.6,29.4-20V75h2.5V12.1h-2.5v18.3c-3.5-9-13.5-19.7-29.4-19.7c-20,0-32,16.7-32,32.8
		c0,8.3,3.1,16.5,8.4,22.5C306.3,70.8,313.8,76.4,325.7,76.4z M296.3,43.5c0-17.1,12.9-30.5,29.3-30.5c16.5,0,29.4,13.2,29.4,30.2
		c0,20.3-14.9,30.9-29.6,30.9C308.9,74.1,296.3,60.9,296.3,43.5z"/>
	<polygon class="st1" points="220.2,74.7 220.3,74.9 222.8,74.9 246.1,26.7 252.9,12.6 253.1,12.2 250.1,12.2 250.1,12.2 
		250.1,12.2 221.6,72.1 192.4,12.2 189.5,12.2 189.5,12.2 189.4,12.2 	"/>
	<path class="st0" d="M238.7,107.5c-5.5,0-10,4.5-10,10s4.5,10,10,10c5.5,0,10-4.5,10-10S244.2,107.5,238.7,107.5z M246.4,117.5
		c0,4.5-3.4,8-7.6,8c-4.3,0-7.6-3.5-7.6-8s3.4-8,7.6-8C243.1,109.5,246.4,112.9,246.4,117.5z"/>
	<path class="st0" d="M258.1,104.4c0.2,0,0.7,0,1,0.1l0.4,0.1v-2.1l-0.3,0c-0.4-0.1-1.1-0.1-1.1-0.1c-3.8,0-5,3.3-5.1,5.4h-2.3v2
		h2.3v17.3h2.4v-17.3h4.1v-2h-4.1C255.5,105.5,256.3,104.4,258.1,104.4z"/>
	<polygon class="st0" points="267.7,104.4 265.2,104.4 265.2,107.8 261.8,107.8 261.8,109.9 265.3,109.9 265.3,127.1 267.7,127.1 
		267.7,109.9 271.2,109.9 271.2,107.8 267.7,107.8 	"/>
	<path class="st0" d="M220.2,115.8c-2.2-1-4.2-1.9-4.2-3.9c0-1.1,0.9-2.3,2.9-2.3c3.6,0,3.8,3.8,3.9,4l0,0.4l2.1-0.9v-0.2
		c0-2.6-2.2-5.4-6-5.4c-2.6,0-5.3,1.6-5.3,4.4c0,3.3,2.8,4.6,5.3,5.8c2.3,1.1,4.4,2,4.4,4.3c0,1.1-1,3.5-4,3.5
		c-1.4,0-4.6-0.5-4.6-4.9v-0.5l-2.1,0.9v0.2c0,3.1,2.1,6.3,6.6,6.3c4,0,6.4-2.9,6.4-5.5C225.8,118.4,222.8,117,220.2,115.8z"/>
	<path class="st0" d="M349.6,107.4c-5.7,0-10,4.4-10,10.2c0,5.7,4.1,9.8,9.8,9.8c7.2,0,9.4-5.8,9.4-5.8l0.1-0.3l-1.8-0.7l-0.1,0.3
		c0,0-1.7,4.4-7.6,4.4c-4.9,0-7.3-4.1-7.4-7.2h17.3l0-0.3c0,0,0.1-0.9,0.1-1.6C359.5,112,355.7,107.4,349.6,107.4z M357.2,116.1
		h-15.2c0.2-2.9,3-6.6,7.6-6.6C354.3,109.5,357.1,112.8,357.2,116.1z"/>
	<path class="st0" d="M339.4,108.3c-0.6-0.5-2-0.9-3.2-0.9c-2.3,0-4,1.2-5.1,3.3v-2.9h-2.4v19.3h2.4v-10.8c0.2-2.1,1-6.9,5.1-6.9
		c0.5,0,1.4,0.1,2,0.5l0.2,0.1l1.2-1.5L339.4,108.3z"/>
	<path class="st0" d="M321.3,111.7c-1.5-2.2-4.4-4.3-7.8-4.3c-5.6,0-10.1,4.5-10.1,10.1c0,5.7,4.3,9.9,10.1,9.9
		c3.5,0,6.3-2.1,7.8-4.3v4h2.4v-19.3h-2.4V111.7z M321.2,117.8c-0.1,4.5-3.3,7.7-7.7,7.7c-4.4,0-7.7-3.4-7.7-7.9
		c0-4.4,3.5-8.1,7.7-8.1c4.5,0,7.7,3.4,7.7,8.1L321.2,117.8z"/>
	<polygon class="st0" points="294.6,122.7 288.7,107.8 287.6,107.8 281.7,122.7 275.4,107.9 273.1,107.9 281,127 281.1,127.2 
		282.2,127.2 288.1,112.3 294,127.2 295.1,127.2 303.1,107.9 300.8,107.9 	"/>
</g>
</svg>
